<?xml version="1.0" encoding="UTF-8"?>
<svg viewBox="0 0 256 256" xmlns="http://www.w3.org/2000/svg">
<path d="M128 0C198.7 0 256 57.3 256 128H0C0 57.3 57.3 0 128 0Z" fill="#FBF1E2"/>
<path d="m14 88h4v4h-4v-4z" fill="#FAFAF8"/>
<path d="m116 64h4v4h-4v-4z" fill="#FAFAF8"/>
<path d="m110 52h4v4h-4v-4z" fill="#FAFAF8"/>
<path d="m116 52h4v4h-4v-4z" fill="#FAFAF8"/>
<path d="m24 56v-2.6c-0.6 0.9-1.2 1.7-1.8 2.6h1.8z" fill="#FAFAF8"/>
<path d="m20 59.3v2.7h4v-4h-3.1c-0.3 0.4-0.6 0.9-0.9 1.3z" fill="#FAFAF8"/>
<path d="m116 58h4v4h-4v-4z" fill="#FAFAF8"/>
<path d="m116 88h4v4h-4v-4z" fill="#FAFAF8"/>
<path d="m110 94h4v4h-4v-4z" fill="#FAFAF8"/>
<path d="m104 94h4v4h-4v-4z" fill="#FAFAF8"/>
<path d="m86 94h4v4h-4v-4z" fill="#FAFAF8"/>
<path d="m80 94h4v4h-4v-4z" fill="#FAFAF8"/>
<path d="m26 58h4v4h-4v-4z" fill="#FAFAF8"/>
<path d="m116 94h4v4h-4v-4z" fill="#FAFAF8"/>
<path d="m8 88h4v4h-4v-4z" fill="#FAFAF8"/>
<path d="m116 82h4v4h-4v-4z" fill="#FAFAF8"/>
<path d="m116 70h4v4h-4v-4z" fill="#FAFAF8"/>
<path d="m6 92v-2.8c-0.3 0.9-0.6 1.9-0.8 2.8h0.8z" fill="#FAFAF8"/>
<path d="m98 94h4v4h-4v-4z" fill="#FAFAF8"/>
<path d="m92 94h4v4h-4v-4z" fill="#FAFAF8"/>
<path d="m50 88h4v4h-4v-4z" fill="#FAFAF8"/>
<path d="m44 88h4v4h-4v-4z" fill="#FAFAF8"/>
<path d="m38 88h4v4h-4v-4z" fill="#FAFAF8"/>
<path d="m86 88h4v4h-4v-4z" fill="#FAFAF8"/>
<path d="m26 88h4v4h-4v-4z" fill="#FAFAF8"/>
<path d="m74 88h4v4h-4v-4z" fill="#FAFAF8"/>
<path d="m56 88h4v4h-4v-4z" fill="#FAFAF8"/>
<path d="m80 88h4v4h-4v-4z" fill="#FAFAF8"/>
<path d="m68 94h4v4h-4v-4z" fill="#FAFAF8"/>
<path d="m62 88h4v4h-4v-4z" fill="#FAFAF8"/>
<path d="m68 88h4v4h-4v-4z" fill="#FAFAF8"/>
<path d="m32 88h4v4h-4v-4z" fill="#FAFAF8"/>
<path d="m26 94h4v4h-4v-4z" fill="#FAFAF8"/>
<path d="m32 94h4v4h-4v-4z" fill="#FAFAF8"/>
<path d="m20 94h4v4h-4v-4z" fill="#FAFAF8"/>
<path d="m104 52h4v4h-4v-4z" fill="#FAFAF8"/>
<path d="m14 94h4v4h-4v-4z" fill="#FAFAF8"/>
<path d="m50 94h4v4h-4v-4z" fill="#FAFAF8"/>
<path d="m56 94h4v4h-4v-4z" fill="#FAFAF8"/>
<path d="m62 94h4v4h-4v-4z" fill="#FAFAF8"/>
<path d="m38 94h4v4h-4v-4z" fill="#FAFAF8"/>
<path d="m20 88h4v4h-4v-4z" fill="#FAFAF8"/>
<path d="m44 94h4v4h-4v-4z" fill="#FAFAF8"/>
<path d="m110 82h4v4h-4v-4z" fill="#FAFAF8"/>
<path d="m80 58h4v4h-4v-4z" fill="#FAFAF8"/>
<path d="m68 58h4v4h-4v-4z" fill="#FAFAF8"/>
<path d="m74 58h4v4h-4v-4z" fill="#FAFAF8"/>
<path d="m98 58h4v4h-4v-4z" fill="#FAFAF8"/>
<path d="m92 58h4v4h-4v-4z" fill="#FAFAF8"/>
<path d="m86 58h4v4h-4v-4z" fill="#FAFAF8"/>
<path d="m38 58h4v4h-4v-4z" fill="#FAFAF8"/>
<path d="m44 58h4v4h-4v-4z" fill="#FAFAF8"/>
<path d="m50 58h4v4h-4v-4z" fill="#FAFAF8"/>
<path d="m62 58h4v4h-4v-4z" fill="#FAFAF8"/>
<path d="m56 58h4v4h-4v-4z" fill="#FAFAF8"/>
<path d="m74 94h4v4h-4v-4z" fill="#FAFAF8"/>
<path d="m92 88h4v4h-4v-4z" fill="#FAFAF8"/>
<path d="m110 88h4v4h-4v-4z" fill="#FAFAF8"/>
<path d="m98 88h4v4h-4v-4z" fill="#FAFAF8"/>
<path d="m104 58h4v4h-4v-4z" fill="#FAFAF8"/>
<path d="m32 58h4v4h-4v-4z" fill="#FAFAF8"/>
<path d="m104 88h4v4h-4v-4z" fill="#FAFAF8"/>
<path d="m110 64h4v4h-4v-4z" fill="#FAFAF8"/>
<path d="m110 58h4v4h-4v-4z" fill="#FAFAF8"/>
<path d="m110 76h4v4h-4v-4z" fill="#FAFAF8"/>
<path d="m110 70h4v4h-4v-4z" fill="#FAFAF8"/>
<path d="m116 76h4v4h-4v-4z" fill="#FAFAF8"/>
<path d="m56 70h4v4h-4v-4z" fill="#FAFAF8"/>
<path d="m92 70h4v4h-4v-4z" fill="#FAFAF8"/>
<path d="m50 70h4v4h-4v-4z" fill="#FAFAF8"/>
<path d="m44 70h4v4h-4v-4z" fill="#FAFAF8"/>
<path d="m80 70h4v4h-4v-4z" fill="#FAFAF8"/>
<path d="m20 76h4v4h-4v-4z" fill="#FAFAF8"/>
<path d="m38 70h4v4h-4v-4z" fill="#FAFAF8"/>
<path d="m74 70h4v4h-4v-4z" fill="#FAFAF8"/>
<path d="m68 70h4v4h-4v-4z" fill="#FAFAF8"/>
<path d="m62 70h4v4h-4v-4z" fill="#FAFAF8"/>
<path d="m14 76h4v4h-4v-4z" fill="#FAFAF8"/>
<path d="m9.2999 80h2.7v-4h-1c-0.5 1.3-1.1 2.7-1.7 4z" fill="#FAFAF8"/>
<path d="m30 50v-4.3c-1.2 1.4-2.3 2.8-3.5 4.3h3.5z" fill="#CFDEE0"/>
<path d="m26 70h4v4h-4v-4z" fill="#FAFAF8"/>
<path d="m32 70h4v4h-4v-4z" fill="#FAFAF8"/>
<path d="m14 70h4v4h-4v-4z" fill="#FAFAF8"/>
<path d="m20 70h4v4h-4v-4z" fill="#FAFAF8"/>
<path d="m86 70h4v4h-4v-4z" fill="#FAFAF8"/>
<path d="m86 40h4v10h-4v-10z" fill="#CFDEE0"/>
<path d="m38 76h4v4h-4v-4z" fill="#FAFAF8"/>
<path d="m32 76h4v4h-4v-4z" fill="#FAFAF8"/>
<path d="m80 40h4v10h-4v-10z" fill="#CFDEE0"/>
<path d="m56 76h4v4h-4v-4z" fill="#FAFAF8"/>
<path d="m92 40h4v10h-4v-10z" fill="#CFDEE0"/>
<path d="m98 40h4v10h-4v-10z" fill="#CFDEE0"/>
<path d="m50 76h4v4h-4v-4z" fill="#FAFAF8"/>
<path d="m44 76h4v4h-4v-4z" fill="#FAFAF8"/>
<path d="m44 40h4v10h-4v-10z" fill="#CFDEE0"/>
<path d="m74 40h4v10h-4v-10z" fill="#CFDEE0"/>
<path d="m50 40h4v10h-4v-10z" fill="#CFDEE0"/>
<path d="M32 43.4V50H36V40H35.1C34 41.1 33 42.2 32 43.4Z" fill="#CFDEE0"/>
<path d="m38 40h4v10h-4v-10z" fill="#CFDEE0"/>
<path d="m68 40h4v10h-4v-10z" fill="#CFDEE0"/>
<path d="m62 40h4v10h-4v-10z" fill="#CFDEE0"/>
<path d="m56 40h4v10h-4v-10z" fill="#CFDEE0"/>
<path d="m80 76h4v4h-4v-4z" fill="#FAFAF8"/>
<path d="m92 76h4v4h-4v-4z" fill="#FAFAF8"/>
<path d="m86 76h4v4h-4v-4z" fill="#FAFAF8"/>
<path d="m98 70h4v4h-4v-4z" fill="#FAFAF8"/>
<path d="m98 76h4v4h-4v-4z" fill="#FAFAF8"/>
<path d="m62 76h4v4h-4v-4z" fill="#FAFAF8"/>
<path d="m116 40h4v10h-4v-10z" fill="#CFDEE0"/>
<path d="m68 76h4v4h-4v-4z" fill="#FAFAF8"/>
<path d="m110 40h4v10h-4v-10z" fill="#CFDEE0"/>
<path d="m74 76h4v4h-4v-4z" fill="#FAFAF8"/>
<path d="m104 40h4v10h-4v-10z" fill="#CFDEE0"/>
<path d="m68 64h4v4h-4v-4z" fill="#FAFAF8"/>
<path d="m62 64h4v4h-4v-4z" fill="#FAFAF8"/>
<path d="m56 64h4v4h-4v-4z" fill="#FAFAF8"/>
<path d="m74 64h4v4h-4v-4z" fill="#FAFAF8"/>
<path d="m26 64h4v4h-4v-4z" fill="#FAFAF8"/>
<path d="m32 64h4v4h-4v-4z" fill="#FAFAF8"/>
<path d="m38 64h4v4h-4v-4z" fill="#FAFAF8"/>
<path d="m50 64h4v4h-4v-4z" fill="#FAFAF8"/>
<path d="m80 64h4v4h-4v-4z" fill="#FAFAF8"/>
<path d="m44 64h4v4h-4v-4z" fill="#FAFAF8"/>
<path d="m104 82h4v4h-4v-4z" fill="#FAFAF8"/>
<path d="m98 82h4v4h-4v-4z" fill="#FAFAF8"/>
<path d="m104 76h4v4h-4v-4z" fill="#FAFAF8"/>
<path d="m92 82h4v4h-4v-4z" fill="#FAFAF8"/>
<path d="m104 64h4v4h-4v-4z" fill="#FAFAF8"/>
<path d="m92 64h4v4h-4v-4z" fill="#FAFAF8"/>
<path d="m98 64h4v4h-4v-4z" fill="#FAFAF8"/>
<path d="m104 70h4v4h-4v-4z" fill="#FAFAF8"/>
<path d="m86 64h4v4h-4v-4z" fill="#FAFAF8"/>
<path d="m92 52h4v4h-4v-4z" fill="#FAFAF8"/>
<path d="m14 82h4v4h-4v-4z" fill="#FAFAF8"/>
<path d="m68 52h4v4h-4v-4z" fill="#FAFAF8"/>
<path d="m74 52h4v4h-4v-4z" fill="#FAFAF8"/>
<path d="m62 52h4v4h-4v-4z" fill="#FAFAF8"/>
<path d="m20 82h4v4h-4v-4z" fill="#FAFAF8"/>
<path d="m80 52h4v4h-4v-4z" fill="#FAFAF8"/>
<path d="m98 52h4v4h-4v-4z" fill="#FAFAF8"/>
<path d="m86 82h4v4h-4v-4z" fill="#FAFAF8"/>
<path d="m20 64h4v4h-4v-4z" fill="#FAFAF8"/>
<path d="m86 52h4v4h-4v-4z" fill="#FAFAF8"/>
<path d="m8 94h4v4h-4v-4z" fill="#FAFAF8"/>
<path d="m26 52h4v4h-4v-4z" fill="#FAFAF8"/>
<path d="m32 52h4v4h-4v-4z" fill="#FAFAF8"/>
<path d="m14.9 68h3.1v-4h-0.8c-0.8 1.3-1.6 2.6-2.3 4z" fill="#FAFAF8"/>
<path d="m56 52h4v4h-4v-4z" fill="#FAFAF8"/>
<path d="M8 83.4V86H12V82H8.6C8.4 82.5 8.2 82.9 8 83.4Z" fill="#FAFAF8"/>
<path d="m50 52h4v4h-4v-4z" fill="#FAFAF8"/>
<path d="m44 52h4v4h-4v-4z" fill="#FAFAF8"/>
<path d="m38 52h4v4h-4v-4z" fill="#FAFAF8"/>
<path d="m3.6 98h2.4v-4h-1.4c-0.4 1.3-0.7 2.7-1 4z" fill="#FAFAF8"/>
<path d="m50 82h4v4h-4v-4z" fill="#FAFAF8"/>
<path d="m44 82h4v4h-4v-4z" fill="#FAFAF8"/>
<path d="m56 82h4v4h-4v-4z" fill="#FAFAF8"/>
<path d="m32 82h4v4h-4v-4z" fill="#FAFAF8"/>
<path d="m26 82h4v4h-4v-4z" fill="#FAFAF8"/>
<path d="m38 82h4v4h-4v-4z" fill="#FAFAF8"/>
<path d="m62 82h4v4h-4v-4z" fill="#FAFAF8"/>
<path d="m74 82h4v4h-4v-4z" fill="#FAFAF8"/>
<path d="m26 76h4v4h-4v-4z" fill="#FAFAF8"/>
<path d="m68 82h4v4h-4v-4z" fill="#FAFAF8"/>
<path d="m80 82h4v4h-4v-4z" fill="#FAFAF8"/>
<path d="m160 12v-8c-5.8-1.5-11.9-2.6-18-3.3v11.3h18z" fill="#FCE2BA"/>
<path d="m142 16h18v18h-18v-18z" fill="#FCE2BA"/>
<path d="m142 38h18v18h-18v-18z" fill="#FCE2BA"/>
<path d="m166 24h18v18h-18v-18z" fill="#FCE2BA"/>
<path d="m166 46h18v18h-18v-18z" fill="#FCE2BA"/>
<path d="m166 68h18v18h-18v-18z" fill="#FCE2BA"/>
<path d="m247.4 82c-2.1-5.5-4.6-10.9-7.4-16v6h-38v-48.4c-2.6-1.8-5.3-3.6-8-5.3v63.7h53.4z" fill="#F4FAFF"/>
<path d="m227.9 48c-1.1-1.4-2.3-2.8-3.4-4.1l-0.5 4.1h3.9z" fill="#CFDEE0"/>
<path d="m230 54h-4v4h-10v-4h-4v-6h6l-1.4-12.3c-4.6-4.4-9.5-8.4-14.6-12.1v48.4h38v-6c-3-5.4-6.3-10.5-10-15.3v3.3z" fill="#CFDEE0"/>
<path d="m218 48h-6v6h18v-3.3c-0.7-0.9-1.4-1.8-2.1-2.7h-9.9z" fill="#ECE6DF"/>
<path d="m216 54h10v4h-10v-4z" fill="#E5B9C2"/>
<path d="m224 48 0.5-4.1c-2.5-2.8-5.1-5.6-7.8-8.2l1.3 12.3h6z" fill="#95ABC1"/>
<path d="m108 194h48c2.2 0 4-1.8 4-4s-1.8-4-4-4h-48c-2.2 0-4 1.8-4 4s1.8 4 4 4z" fill="#BE7460"/>
<path d="m130 194h6v62h-6v-62z" fill="#B5C8CA"/>
<path d="m115 194-13 62h4.9l14.9-62h-6.8z" fill="#B5C8CA"/>
<path d="m151.8 194 13 62h-4.9l-14.8-62h6.7z" fill="#B5C8CA"/>
<path d="m153.6 80.9c0-0.2-0.2-1-0.2-1-1.2-6.8-7.5-11.7-14.6-11.2-7.7 0.5-13.5 7.1-12.9 14.6 0.2 2.8 1.2 5.3 2.8 7.3 1.2 1.8 3.3 5.4 3.3 5.4v6h16s0.2-4.2 1.9-4.7c4.1-1.3 4.1-3.3 4.1-7.3-0.3-2.5 1.9-2.2 1.8-3.7-0.1-1.3-1.6-2.6-2.2-5.4z" fill="#955646"/>
<path d="m152.9 74.2c-2.5-5.4-11-6.3-16.8-5.5-4.2 0.6-6.2 3.5-8.4 6.7-1.4 2.1-3.6 3.8-5.2 6.2-1.2 1.8 0 3.1 1.1 3.9 0.4 0.3 0.4 1 0 1.3-0.8 0.6-1.8 1.6-1.3 2.9 0.4 0.9 1.1 1.3 1.8 1.5 1 0.2 1.8 1.1 2 2.2 0.2 1.5 1 2.8 3.7 2.6 0.6 0 0.5 0.7 1.1 2.2 0.5 1.3 2.7 1.1 3.7 1 1.1-0.1 2.6-2.8 1-3.3 4.9 1.4 2.6-5.1 4.1-5.5 3-0.8 2.5-2.8 2.5-2.8s1.8 0.5 2 2.5c0.2 1.4 0.6 2.3 1.2 2.9 1 1.1 2.8 0.3 2.8-1.2v-13.4c0-0.9 0.7-1.6 1.5-1.7 0.6-0.1 1.4-0.2 2-0.2 1.2-0.3 2.2-0.6 1.2-2.3z" fill="#0D2135"/>
<path d="m162 160v-10s4.4 3.9 10 2l12-6-2-10h-12l-10-24s-2-6-12-6l-20-2c-10 0-16 4-18 12l-4 50h52s4-2 4-6z" fill="#F4BA64"/>
<path d="m144.7 227.4 9.3 4.6c-1.9 4.3-4 10-4 10l-9.2-4.2 1.2-3.8" fill="#B9AF9F"/>
<path d="m152.5 253.3-14.5-10.4c-2.1-1.5-2.5-4.6-0.8-6.6l4.6-5.3c5.4 3.8 2.9 7.7 9.8 7.2 0.3 8.3 3.4 9.5 4.6 12.4 0.9 2.2-1.8 4.1-3.7 2.7z" fill="#211F1C"/>
<path d="m140 166h18c14.2 3.5 30.1 23.7 22.6 36.6l-21.1 35.2-17.7-11.3 21.2-34.9-27.1-6.1c-16 0.1-13.9-19.5-13.9-19.5h18z" fill="#004182"/>
<path d="m123 228.4 5-6.4 8 6c-1.9 4.3-6 14-6 14l-7.1-13.3" fill="#D6CEC2"/>
<path d="m133.8 252.7c-4.6-3.4-11.7-8.7-16-11.9-2-1.5-2.3-4.4-0.6-6.3l5.7-6.1c5.4 3.8 2.9 7.7 9.8 7.2-1 6.7 2.8 9.8 5.2 12.7 2.3 2.8-1.2 6.5-4.1 4.4z" fill="#211F1C"/>
<path d="m132 166 18.7 1.9c13.8 3.5 20.4 20.4 13 33.4l-22.5 35.1-16.6-10 20.5-34.2-23-6.1c-17.2-4.5-16-20-16-20h25.9v-0.1z" fill="#004182"/>
<path d="m130 106h18v-4h-18c-1.1 0-2 0.9-2 2s0.9 2 2 2z" fill="#0D2135"/>
<path d="m98.6 90.1c-0.5-0.3-1.3 0.3-1.3 0.3-2.2 1.6-3.6 2-5.1 2l0.1 0.6 6.1-0.6 0.2-2.3z" fill="#DE9885"/>
<path d="m83.2 96.4 1.7-2.2c2.3-3.5 3.9-3.3 4.7-4.1 0.5-0.5 1.4-1.3 2-1.9 0.3-0.3 0.8-0.3 1.1 0s0.4 0.8 0 1.1l-1.6 1.7c-0.4 0.5-0.2 1.2 0.4 1.3 3.6 0.5 6.4-1.7 7.4-2.5 0.2-0.2 0.5-0.2 0.7-0.1 0.3 0.2 0.4 0.6 0.2 0.9l-0.3 0.4c0.3 0.3 0.3 0.8 0 1.1-4.3 4.1-9.1 5.8-11.2 6.2-0.6 0.1-1.2 0.5-1.7 1l-0.6 0.7-0.2 0.3-13 15.1c-3.4 4-9.1 5.2-13.9 3.1l-3.5-1.5 6.9-11.8 4.1 2 16.6-10.7 0.2-0.1z" fill="#DE9885"/>
<path d="m0.90002 240.5s19.8 12.6 19.8 9.5c0-2-4.9-6.1-4.1-10.9 0.4-7 18.8-19.7 30.1-35.1h-20l-19.9 28.4-0.5 0.6-5.4 7.5z" fill="#BF7461"/>
<path d="m0.69995 242 22 13.9c2.3-4-0.8-6.3-3.2-8.3-3.6 0.4-7.9-4.1-9.6-7.6-1.5-3.2-1.7-4.6-3.7-6.9-5.3 2.6-5.5 8.9-5.5 8.9z" fill="#0D2135"/>
<path d="m42.7 252 16 2c0-2-1.6001-2.8-1.6001-2.8s-5.1-1.2-7.3-5.7c-3.7-6 4.3-22.6 4.8-41.5h-16v38c0 0.7-0.8 4.2-0.8 4.2l4.9001 5.8z" fill="#DE9885"/>
<path d="m72.2 150.7c-0.4-6.7-1.4-12-2-16.6-1.6-9.1-3.4-15.4-2.3-24.8 0.9-7.8-0.8-12.5-3-16.1-1.9-3-4.6-8.7-6.1-11.2h-20s-9.8 9.3-6 24c1.8 7-4.4 28.6-6 36s-6.5 36.5 0 62h44c-0.1 0 2.5-33.1 1.4-53.3z" fill="#F1ECE6"/>
<path d="m36.7 256h28c0-4-4.5-4.4-7.6-4.8-0.7 3.3-9 0.1-12.7-2.8-1.4-1.1-3.8-2.4-6.5-2.2-3 5.1-1.2 9.8-1.2 9.8z" fill="#0D2135"/>
<path d="m67.7 57.9c0-1.6-0.3-3.2-0.8-4.7-1.7-4.6-5.9-8.1-11.2-8.7-7.5-0.9-14.2 4.4-15.1 11.8-0.3 2.7 0.2 5.3 1.3 7.6 3.9 7.6 6.3 10-1.2 17.2l0.1 0.9h18s-2.2-7.6 2.5-8.6c4.6-1 4.9-1.1 5.3-5.5 0.1-2.4 2-1.9 2.2-3.3 0-1.4-1.4-3.2-1.1-6.7z" fill="#DE9885"/>
<path d="m65.2 63c-0.3 0-0.5-0.2-0.5-0.5v-4c0-0.3 0.2-0.5 0.5-0.5s0.5 0.2 0.5 0.5v4c0 0.3-0.2 0.5-0.5 0.5z" fill="#0D2135"/>
<path d="m84.7 122h-6v-12h10v8c0 2.2-1.8 4-4 4z" fill="#95ABC1"/>
<path d="m86.6 126.4c-1.4 0.7-4.5 0.3-5.9 1.1l-24.4 5.8c-8 1.1-10.7-1.2-11.5-9.3l-2-19.9h15.2v18h20.7c1.9-1.1 3-2.4 3.4-3.2 0.5-0.9 1.4-1.6 2.5-1.6l-0.6 1.6c1.3 0.5 2.9 0.2 4.2 0l0.5-0.7c1 0.3 0.6 1.5 0 2.2 0.1 0.4 0 0.9-0.2 1.3-0.4 0.5 1e-4 1.2-0.1999 1.7-0.4 0.4-0.4 0.9-0.4 1.4-0.1 0.6-0.7001 1.2-1.3001 1.6z" fill="#EBB0A0"/>
<path d="M57.7 60H64.6999V61H57.7V60Z" fill="#0D2135"/>
<path d="M45.6 82H36L39.6 101.7C39.8 103 41 104 42.3 104H58V94.4C58 87.6 52.4 82 45.6 82Z" fill="#fff"/>
<path d="m55.7 44.1c-7.5-0.9-15.4 3.3-16.5 14.1-0.9 8.9-14.7 14.9-8.9 25 0.6 1.7-5.7 5.3-5.7 12.7 0 8 8 10 8 10v-9.9s12.8-8 14.2-14.1c0.4-1.7 1-3.2 2.3-4.4 1.8-1.8 2.4-4.1 2.5-6.4 0.1-3.4-0.8-6.9-1.5-9.2-1.3-4.4 1.9-5.8 4-5.8 4.1 0.1 3.5 4.8 3.5 4.8s1.3-0.7 1.8-1.2c2.2-2.4-0.6-5 3.3-5.6-0.2 3.1-1.1 3.8-1.1 3.8 3-0.3 3.6-3.1 4.1-5.1 0.3-1 0.1-2-0.5-2.9-2.1-3.3-4.9-5.2-9.5-5.8z" fill="#BE3626"/>
<path d="m146.4 141-12.4 5v-10l14.3-1.7c0.3-0.1 0.6-0.1 0.9 0l3 0.4c0.4 0.1 0.8 0.3 1 0.6l4.6 6.7c0.2 0.3 0.2 0.6 0 0.9-0.3 0.3-0.8 0.3-1.1 0l-4.5-4.3 0.2 1.7c0.1 1-0.6 1.9-1.7 2l-2.9 0.2c-0.7-0.1-1.4-0.7-1.4-1.5z" fill="#955646"/>
<path d="m165.6 148.8 9.3-31.6h45.5l-9.3 31.6h-45.5z" fill="#0A2036"/>
<path d="m218.8 118.4-8.6 29.2h-43l8.6-29.2h43zm3.2-2.4h-48l-10 34h48l10-34z" fill="#0D2135"/>
<path d="m134 148h78v2h-78v-2z" fill="#0A2036"/>
<path d="m212 148h-78v2h78v-2z" fill="#0D2135"/>
<path d="m232.7 146.2-1.4-0.4 13.9-41.7-25.8-37.7 1.2-0.8 26.2 38.3-14.1 42.3z" fill="#778B8C"/>
<path d="m220 146v4h28v-4c-8.2 0-12-6-12-6h-4s-3.8 6-12 6z" fill="#F38D70"/>
<path d="m246 106c1.105 0 2-0.895 2-2s-0.895-2-2-2-2 0.895-2 2 0.895 2 2 2z" fill="#778B8C"/>
<path d="m202 76.5 12 10.3 6.2-7c1.6-1.8 2.2-4 1.9-6.2-0.2-1.5 0.2-3 1.2-4.1l3.7-4.2-5.1-4.4-3.7 4.2c-1 1.1-2.4 1.7-3.9 1.7-2.2 0-4.4 0.9-5.9 2.7l-6.4 7z" fill="#F38D70"/>
<path d="m244 160h-160l-11.3 96h3.3l9.6-77.9c1.5-8.5 4.7-12.1 13.6-12.1h129.7c8.9 0 12.1 3.6 13.6 12.1l9.5 77.9h3.3l-11.3-96z" fill="#B5C8CA"/>
<path d="m248 150h-168c-2.2 0-4 1.8-4 4s1.8 4 4 4h4v2h160v-2h4c2.2 0 4-1.8 4-4s-1.8-4-4-4z" fill="#7389A0"/>
<path d="m231.4 205c-2.9-2.7-10 1.8-12 20.6v0.2l-1 3.9c0.1-0.9 1.7-8.6 0.9-12.1-0.4-1.8-0.4-3.7 0.3-5.4 0.5-1.4 0.9-2.8 0.1-4.2-2.6-2.6-1.6-6.3 0.3-9.1 1.8-2.7 5.3-8.4 1.3-10.8-2-3.2 0.9-7.6 1.7-10.9 2-4.3-1.6-9.6-5.1-4.3-4.4 9.4-6.3 15.7-1.2 53.3-5-27.3-16-36.1-16-36.1-3.1-3.3-8.3-1.7-6.3 3.3 3.9 7.7 12.1 6 12.4 15.2 0.1 1.9 0.8 3.7 2.2 5 0.8 0.8 1.6 1.6 2 2.6 0.7 2-1.2 3.6-0.4 5.6 1.3 3.4 4.3 6.3 4.5 9.7-5.5-7.3-18.3-11.2-14.5-5.3 1.5 1.1 3.9 0.5 5.2 1.9 0.8 0.9 1.1 2.1 1.7 3.1 2.1 3.8 8.9 2.4 9.2 9.7l0.2 1.3 2-1.4 0.9-4.3c1.6-1.8 3.9-1.5 6-1.7 1.3-0.1 1.3-1.1 1.2-2 0.1-0.3 0.4-0.5 0.7-0.5 1.4 0.2 4.7-0.7 3.3-2.3-1.6-1.8-7.5-1-12 4.1 1-1.8 3.2-3.2 4.1-4.9 0.5-1.9 0.3-4.2 1.9-5.7 2.8-3.3 0.1-4.1 1.7-8.3 1.1-3.5 7.6-6.1 4.7-10.2z" fill="#9EB22C"/>
<path d="m210.1 256h15.8l2.1-18h-20l2.1 18z" fill="#762812"/>
<path d="m207.5 238.3 0.4 2.9c0.1 0.5 0.5 0.9 1 0.9h18.3c0.5 0 0.9-0.4 1-0.9l0.4-2.9c0.2-1.2-0.8-2.3-2-2.3h-17.1c-1.3 0-2.2 1.1-2 2.3z" fill="#BE3626"/>
</svg>